<svg xmlns="http://www.w3.org/2000/svg" width="19" height="18" viewBox="0 0 19 18" fill="currentColor"><path d="M16.166 1.20312L16.2666 1.21289C16.4946 1.25942 16.666 1.46142 16.666 1.70312V6.70312H15.666V2.20312H1.66602V14.5361H7.83301V15.5361H1.16602C0.889873 15.5361 0.666016 15.3123 0.666016 15.0361V1.70312L0.675781 1.60254C0.722308 1.37457 0.924302 1.20312 1.16602 1.20312H16.166Z"/><path d="M17.333 12.5381C17.333 10.5131 15.6919 8.87127 13.667 8.87109C11.6419 8.87109 10 10.513 10 12.5381C10.0002 14.563 11.6421 16.2041 13.667 16.2041C15.6918 16.2039 17.3328 14.5629 17.333 12.5381ZM18.333 12.5381C18.3328 15.1152 16.2441 17.2039 13.667 17.2041C11.0898 17.2041 9.00017 15.1153 9 12.5381C9 9.96076 11.0897 7.87109 13.667 7.87109C16.2442 7.87127 18.333 9.96086 18.333 12.5381Z"/><path d="M16.166 4.53711V5.53711H1.16602V4.53711H16.166Z"/><path d="M5 0.0371094V2.9541H4V0.0371094H5Z"/><path d="M13.332 0.0371094V2.9541H12.332V0.0371094H13.332Z"/><path d="M15.6865 12.0566L13.6035 14.1396C13.5097 14.2334 13.3826 14.2861 13.25 14.2861C13.1174 14.2861 12.9903 14.2334 12.8965 14.1396L11.6465 12.8896L12.3535 12.1826L13.25 13.0791L14.9795 11.3496L15.6865 12.0566Z"/></svg>