<svg xmlns="http://www.w3.org/2000/svg" width="19" height="19" viewBox="0 0 19 19" fill="currentColor"><path d="M17.333 9.37012C17.3328 5.04404 13.8251 1.53711 9.49902 1.53711C5.17305 1.53728 1.66619 5.04414 1.66602 9.37012C1.66602 13.6962 5.17294 17.2039 9.49902 17.2041C13.8253 17.2041 17.333 13.6963 17.333 9.37012ZM18.333 9.37012C18.333 14.2486 14.3775 18.2041 9.49902 18.2041C4.62066 18.2039 0.666016 14.2485 0.666016 9.37012C0.66619 4.49186 4.62077 0.537284 9.49902 0.537109C14.3774 0.537109 18.3328 4.49175 18.333 9.37012Z"/><path d="M8.14844 11.2217C8.14848 11.9681 8.75354 12.5731 9.5 12.5732H9.63574C10.3075 12.5731 10.8525 12.0283 10.8525 11.3564C10.8525 10.9534 10.6529 10.5805 10.3271 10.3555L10.1797 10.2686L8.37402 9.36523C7.62303 8.98974 7.14845 8.22244 7.14844 7.38281C7.14844 6.15853 8.14095 5.16602 9.36523 5.16602H9.5L9.74121 5.17773C10.9268 5.29835 11.8524 6.30015 11.8525 7.51758H10.8525C10.8524 6.81781 10.3201 6.24214 9.63867 6.17285L9.5 6.16602H9.36523C8.69324 6.16602 8.14844 6.71081 8.14844 7.38281C8.14845 7.84367 8.40909 8.26461 8.82129 8.4707L10.627 9.37402L10.7646 9.44922C11.4353 9.84612 11.8525 10.5695 11.8525 11.3564C11.8525 12.5806 10.8598 13.5731 9.63574 13.5732H9.5C8.20127 13.5731 7.14848 12.5204 7.14844 11.2217H8.14844Z"/><path d="M10 3.81445V5.66602H9V3.81445H10Z"/><path d="M10 13.0742V14.9258H9V13.0742H10Z"/></svg>