<svg width="30" height="31" viewBox="0 0 30 31" fill="none" xmlns="http://www.w3.org/2000/svg">
<path d="M12.2911 24.0218L16.9626 28.6718C17.2492 28.9655 17.6075 29.1794 18.0022 29.2921C18.3968 29.4049 18.814 29.4126 19.2126 29.3146C19.6136 29.2214 19.9839 29.0265 20.2879 28.7488C20.5919 28.4711 20.8193 28.1199 20.9483 27.7289L28.6197 4.73604C28.7798 4.30522 28.8128 3.83749 28.7149 3.38845C28.6169 2.93941 28.3921 2.52793 28.0671 2.20294C27.7421 1.87795 27.3306 1.65311 26.8816 1.55515C26.4325 1.45719 25.9648 1.49022 25.534 1.65033L2.54113 9.32175C2.13667 9.45991 1.77644 9.70356 1.49766 10.0275C1.21889 10.3515 1.03169 10.7441 0.955417 11.1646C0.876687 11.5471 0.894214 11.9431 1.00642 12.3172C1.11863 12.6912 1.32201 13.0315 1.59827 13.3075L7.4697 19.1789L7.27685 26.6146L12.2911 24.0218Z" stroke="#FFFFFF" stroke-width="1.5" stroke-linecap="round" stroke-linejoin="round"/>
<path d="M27.934 2.12207L7.4697 19.1792" stroke="#FFFFFF" stroke-width="1.5" stroke-linecap="round" stroke-linejoin="round"/>
</svg>
