<svg xmlns="http://www.w3.org/2000/svg" width="30" height="30" viewBox="0 0 30 30" fill="currentColor"><path d="M24.125 7.875C25.375 9.25 26.125 10.75 26.125 13.25C26.125 17.625 23 21.5 18.625 23.5L17.5 21.875C21.625 19.625 22.5 16.75 22.75 14.875C22.125 15.25 21.25 15.375 20.375 15.25C18.125 15 16.375 13.25 16.375 10.875C16.375 9.75 16.875 8.625 17.625 7.75C18.5 6.875 19.5 6.5 20.75 6.5C22.125 6.5 23.375 7.125 24.125 7.875ZM11.625 7.875C12.875 9.25 13.625 10.75 13.625 13.25C13.625 17.625 10.5 21.5 6.125 23.5L5 21.875C9.125 19.625 10 16.75 10.25 14.875C9.625 15.25 8.75 15.375 7.875 15.25C5.625 15 3.875 13.25 3.875 10.875C3.875 9.75 4.375 8.625 5.125 7.75C5.875 6.875 7 6.5 8.25 6.5C9.625 6.5 10.875 7.125 11.625 7.875Z"/></svg>