<svg xmlns="http://www.w3.org/2000/svg" width="30" height="30" viewBox="0 0 30 30" fill="none"><path fill-rule="evenodd" clip-rule="evenodd" d="M14.2289 1.89352L2.03747 7.58286C1.96649 7.6204 1.9068 7.67628 1.86465 7.74475C1.82097 7.81569 1.79785 7.89736 1.79785 7.98066C1.79785 8.06396 1.82097 8.14563 1.86465 8.21657C1.90665 8.2848 1.96609 8.34054 2.03675 8.37807L14.228 14.0246C14.4495 14.1195 14.6879 14.1685 14.9289 14.1685C15.1695 14.1685 15.4076 14.1196 15.6288 14.0249L27.8203 8.3356C27.8913 8.29806 27.9509 8.24218 27.9931 8.17371C28.0368 8.10277 28.0599 8.02111 28.0599 7.9378C28.0599 7.8545 28.0368 7.77283 27.9931 7.70189C27.9511 7.63366 27.8917 7.57793 27.821 7.54039L15.6297 1.8939C15.4083 1.79897 15.1698 1.75 14.9289 1.75C14.6882 1.75 14.4501 1.79884 14.2289 1.89352ZM13.623 0.521292C14.0351 0.342341 14.4796 0.25 14.9289 0.25C15.3782 0.25 15.8226 0.342341 16.2347 0.521292L16.2512 0.528682L28.4655 6.18582C28.4731 6.18933 28.4806 6.19297 28.4881 6.19673C28.8104 6.35929 29.0812 6.60813 29.2705 6.91553C29.4597 7.22293 29.5599 7.57682 29.5599 7.9378C29.5599 8.29878 29.4597 8.65268 29.2705 8.96008C29.0812 9.26748 28.8104 9.51631 28.4881 9.67887C28.4812 9.68231 28.4744 9.68564 28.4675 9.68887L16.2532 15.3889L16.2347 15.3972C15.8226 15.5761 15.3782 15.6685 14.9289 15.6685C14.4796 15.6685 14.0351 15.5761 13.623 15.3972L13.6065 15.3898L1.39224 9.73264C1.38466 9.72913 1.37714 9.72549 1.36969 9.72173C1.04738 9.55917 0.776532 9.31033 0.587292 9.00293C0.398051 8.69553 0.297852 8.34164 0.297852 7.98066C0.297852 7.61968 0.398051 7.26579 0.587292 6.95839C0.776532 6.65099 1.04739 6.40215 1.36969 6.23959C1.3765 6.23615 1.38337 6.23282 1.39028 6.22959L13.6046 0.529594L13.623 0.521292Z" fill="currentColor"/><path fill-rule="evenodd" clip-rule="evenodd" d="M29.5385 15.3592C29.7118 15.7355 29.5473 16.1809 29.1711 16.3542L16.0997 22.3757L16.0971 22.3768C15.7203 22.5487 15.3108 22.6377 14.8966 22.6377C14.4824 22.6377 14.073 22.5487 13.6961 22.3768L13.6922 22.3751L13.6922 22.3751L0.685105 16.3536C0.309215 16.1796 0.145561 15.7338 0.319572 15.358C0.493584 14.9821 0.939367 14.8184 1.31526 14.9924L14.3186 21.0121C14.3191 21.0123 14.3197 21.0126 14.3202 21.0129C14.5012 21.0951 14.6978 21.1377 14.8966 21.1377C15.0957 21.1377 15.2924 21.095 15.4735 21.0126C15.4739 21.0124 15.4743 21.0123 15.4746 21.0121L28.5435 14.9918C28.9197 14.8185 29.3652 14.983 29.5385 15.3592Z" fill="currentColor"/><path fill-rule="evenodd" clip-rule="evenodd" d="M29.5385 22.3241C29.7118 22.7003 29.5473 23.1458 29.1711 23.3191L16.0997 29.3405L16.0971 29.3417C15.7203 29.5136 15.3108 29.6025 14.8966 29.6025C14.4824 29.6025 14.073 29.5136 13.6961 29.3417L13.6922 29.3399L13.6922 29.3399L0.685105 23.3185C0.309215 23.1445 0.145561 22.6987 0.319572 22.3228C0.493584 21.9469 0.939366 21.7833 1.31526 21.9573L14.3186 27.9769C14.3191 27.9772 14.3197 27.9775 14.3203 27.9777C14.5013 28.06 14.6978 28.1025 14.8966 28.1025C15.0956 28.1025 15.2923 28.0599 15.4735 27.9775C15.4738 27.9773 15.4742 27.9771 15.4746 27.9769L28.5435 21.9567C28.9197 21.7834 29.3652 21.9479 29.5385 22.3241Z" fill="currentColor"/></svg>