<svg xmlns="http://www.w3.org/2000/svg" width="24" height="24" viewBox="0 0 24 24" fill="none"><path d="M9.78613 5.57129C9.78591 3.244 7.89864 1.35742 5.57129 1.35742C3.24414 1.35765 1.35765 3.24414 1.35742 5.57129C1.35742 7.89864 3.244 9.78591 5.57129 9.78613C7.89877 9.78613 9.78613 7.89877 9.78613 5.57129ZM10.7861 5.57129C10.7861 8.45106 8.45106 10.7861 5.57129 10.7861C2.69171 10.7859 0.357422 8.45092 0.357422 5.57129C0.357648 2.69185 2.69185 0.357648 5.57129 0.357422C8.45092 0.357422 10.7859 2.69171 10.7861 5.57129Z" fill="currentColor"/><path d="M22.6436 5.57129C22.6433 3.244 20.7561 1.35742 18.4287 1.35742C16.1016 1.35765 14.2151 3.24414 14.2148 5.57129C14.2148 7.89864 16.1014 9.78591 18.4287 9.78613C20.7562 9.78613 22.6436 7.89877 22.6436 5.57129ZM23.6436 5.57129C23.6436 8.45106 21.3085 10.7861 18.4287 10.7861C15.5491 10.7859 13.2148 8.45092 13.2148 5.57129C13.2151 2.69185 15.5493 0.357648 18.4287 0.357422C21.3083 0.357422 23.6433 2.69171 23.6436 5.57129Z" fill="currentColor"/><path d="M9.78613 18.4287C9.78591 16.1014 7.89864 14.2148 5.57129 14.2148C3.24414 14.2151 1.35765 16.1016 1.35742 18.4287C1.35742 20.7561 3.244 22.6433 5.57129 22.6436C7.89877 22.6436 9.78613 20.7562 9.78613 18.4287ZM10.7861 18.4287C10.7861 21.3085 8.45106 23.6436 5.57129 23.6436C2.69171 23.6433 0.357422 21.3083 0.357422 18.4287C0.357648 15.5493 2.69185 13.2151 5.57129 13.2148C8.45092 13.2148 10.7859 15.5491 10.7861 18.4287Z" fill="currentColor"/><path d="M22.6436 18.4287C22.6433 16.1014 20.7561 14.2148 18.4287 14.2148C16.1016 14.2151 14.2151 16.1016 14.2148 18.4287C14.2148 20.7561 16.1014 22.6433 18.4287 22.6436C20.7562 22.6436 22.6436 20.7562 22.6436 18.4287ZM23.6436 18.4287C23.6436 21.3085 21.3085 23.6436 18.4287 23.6436C15.5491 23.6433 13.2148 21.3083 13.2148 18.4287C13.2151 15.5493 15.5493 13.2151 18.4287 13.2148C21.3083 13.2148 23.6433 15.5491 23.6436 18.4287Z" fill="currentColor"/></svg>