<svg xmlns="http://www.w3.org/2000/svg" width="24" height="22" viewBox="0 0 24 22" fill="none"><path d="M14.0713 14.4287C14.0713 10.9179 11.2257 8.07144 7.71484 8.07129C4.20389 8.07129 1.35742 10.9178 1.35742 14.4287C1.35757 17.9395 4.20398 20.7852 7.71484 20.7852C11.2256 20.785 14.0711 17.9394 14.0713 14.4287ZM15.0713 14.4287C15.0711 18.4917 11.7779 21.785 7.71484 21.7852C3.6517 21.7852 0.357573 18.4918 0.357422 14.4287C0.357422 10.3655 3.65161 7.07129 7.71484 7.07129C11.778 7.07144 15.0713 10.3656 15.0713 14.4287Z" fill="currentColor"/><path d="M22.6426 14.4287C22.6426 10.9179 19.797 8.07144 16.2861 8.07129C12.7752 8.07129 9.92871 10.9178 9.92871 14.4287C9.92886 17.9395 12.7753 20.7852 16.2861 20.7852C19.7969 20.785 22.6424 17.9394 22.6426 14.4287ZM23.6426 14.4287C23.6424 18.4917 20.3491 21.785 16.2861 21.7852C12.223 21.7852 8.92886 18.4918 8.92871 14.4287C8.92871 10.3655 12.2229 7.07129 16.2861 7.07129C20.3492 7.07144 23.6426 10.3656 23.6426 14.4287Z" fill="currentColor"/><path d="M18.3574 7.57129C18.3574 4.06043 15.5118 1.21402 12.001 1.21387C8.49002 1.21387 5.64355 4.06034 5.64355 7.57129C5.64371 11.0821 8.49012 13.9277 12.001 13.9277C15.5117 13.9276 18.3573 11.082 18.3574 7.57129ZM19.3574 7.57129C19.3573 11.6343 16.064 14.9276 12.001 14.9277C7.93783 14.9277 4.64371 11.6344 4.64355 7.57129C4.64355 3.50805 7.93774 0.213867 12.001 0.213867C16.0641 0.214018 19.3574 3.50814 19.3574 7.57129Z" fill="currentColor"/></svg>