<svg xmlns="http://www.w3.org/2000/svg" width="19" height="19" viewBox="0 0 19 19" fill="currentColor"><path d="M17.333 9.37012C17.3328 5.04404 13.8251 1.53711 9.49902 1.53711C5.17305 1.53728 1.66619 5.04414 1.66602 9.37012C1.66602 13.6962 5.17294 17.2039 9.49902 17.2041C13.8253 17.2041 17.333 13.6963 17.333 9.37012ZM18.333 9.37012C18.333 14.2486 14.3775 18.2041 9.49902 18.2041C4.62066 18.2039 0.666016 14.2485 0.666016 9.37012C0.66619 4.49186 4.62077 0.537284 9.49902 0.537109C14.3774 0.537109 18.3328 4.49175 18.333 9.37012Z"/><path d="M10 3.53809V8.87109H15.333V9.87109H9.5C9.22386 9.87109 9 9.64724 9 9.37109V3.53809H10Z"/></svg>