<svg xmlns="http://www.w3.org/2000/svg" width="152" height="36" viewBox="0 0 152 36" fill="none"><path d="M44.2188 23.8309H55.0464V20.5524H48.0671V8.20312H44.2188V23.8309Z" fill="white"></path><path d="M61.461 21.647C59.9173 21.647 59.1129 20.2919 59.1129 18.2592C59.1129 16.2265 59.9173 14.8495 61.461 14.8495C63.0047 14.8495 63.8309 16.2265 63.8309 18.2592C63.8309 20.2919 63.0047 21.647 61.461 21.647ZM61.4828 24.1825C65.0702 24.1825 67.4184 21.6252 67.4184 18.2592C67.4184 14.8932 65.0702 12.3359 61.4828 12.3359C57.917 12.3359 55.5254 14.8932 55.5254 18.2592C55.5254 21.6252 57.917 24.1825 61.4828 24.1825Z" fill="white"></path><path d="M73.6288 27.6999C75.2812 27.6999 76.738 27.3283 77.7164 26.454C78.6078 25.6453 79.1949 24.4213 79.1949 22.7383V12.6404H75.8031V13.8425H75.7596C75.1073 12.9026 74.1072 12.3125 72.6287 12.3125C69.8674 12.3125 67.9541 14.6293 67.9541 17.9079C67.9541 21.3395 70.2805 23.2192 72.7809 23.2192C74.1289 23.2192 74.9769 22.6727 75.6291 21.9296H75.7161V23.0443C75.7161 24.3994 75.0856 25.1863 73.5854 25.1863C72.4113 25.1863 71.8242 24.6836 71.6285 24.0934H68.1933C68.5411 26.4322 70.5632 27.6999 73.6288 27.6999ZM73.6071 20.5745C72.2808 20.5745 71.4111 19.4816 71.4111 17.7986C71.4111 16.0938 72.2808 15.0009 73.6071 15.0009C75.0856 15.0009 75.8683 16.2686 75.8683 17.7768C75.8683 19.3505 75.1508 20.5745 73.6071 20.5745Z" fill="white"></path><path d="M86.1681 21.647C84.6244 21.647 83.8199 20.2919 83.8199 18.2592C83.8199 16.2265 84.6244 14.8495 86.1681 14.8495C87.7118 14.8495 88.538 16.2265 88.538 18.2592C88.538 20.2919 87.7118 21.647 86.1681 21.647ZM86.1898 24.1825C89.7773 24.1825 92.125 21.6252 92.125 18.2592C92.125 14.8932 89.7773 12.3359 86.1898 12.3359C82.6241 12.3359 80.2324 14.8932 80.2324 18.2592C80.2324 21.6252 82.6241 24.1825 86.1898 24.1825Z" fill="white"></path><path d="M93.1609 23.8309H96.7049V12.6401H93.1609V23.8309ZM93.1609 11.0883H96.7049V8.20312H93.1609V11.0883Z" fill="white"></path><path d="M98.2422 27.525H101.786V22.6727H101.83C102.525 23.6126 103.547 24.1809 104.982 24.1809C107.896 24.1809 109.831 21.864 109.831 18.2358C109.831 14.8698 108.026 12.3125 105.069 12.3125C103.547 12.3125 102.46 12.9901 101.699 13.9955H101.634V12.6404H98.2422V27.525ZM104.069 21.4269C102.547 21.4269 101.677 20.181 101.677 18.3669C101.677 16.5528 102.46 15.1758 104.004 15.1758C105.526 15.1758 106.243 16.4435 106.243 18.3669C106.243 20.2685 105.417 21.4269 104.069 21.4269Z" fill="white"></path><path d="M115.6 24.1809C118.514 24.1809 120.666 22.9132 120.666 20.4652C120.666 17.6019 118.362 17.0992 116.405 16.7713C114.992 16.5091 113.731 16.3998 113.731 15.6129C113.731 14.9135 114.405 14.5856 115.274 14.5856C116.253 14.5856 116.927 14.8916 117.057 15.8971H120.318C120.144 13.6895 118.449 12.3125 115.296 12.3125C112.665 12.3125 110.491 13.5365 110.491 15.8971C110.491 18.5199 112.556 19.0445 114.491 19.3723C115.97 19.6346 117.318 19.7439 117.318 20.7493C117.318 21.4706 116.644 21.864 115.579 21.864C114.405 21.864 113.665 21.3176 113.535 20.2029H110.187C110.295 22.6727 112.339 24.1809 115.6 24.1809Z" fill="white"></path><path d="M125.481 24.1593C127.025 24.1593 128.003 23.5473 128.808 22.4544H128.873V23.8314H132.265V12.6406H128.721V18.8917C128.721 20.225 127.981 21.143 126.764 21.143C125.633 21.143 125.09 20.4654 125.09 19.2415V12.6406H121.567V19.9846C121.567 22.4763 122.915 24.1593 125.481 24.1593Z" fill="white"></path><path d="M133.807 23.8312H137.351V17.5582C137.351 16.2249 138.003 15.2851 139.112 15.2851C140.177 15.2851 140.677 15.9845 140.677 17.1866V23.8312H144.221V17.5582C144.221 16.2249 144.852 15.2851 145.982 15.2851C147.048 15.2851 147.548 15.9845 147.548 17.1866V23.8312H151.092V16.5528C151.092 14.0392 149.831 12.3125 147.309 12.3125C145.874 12.3125 144.678 12.9245 143.808 14.2796H143.765C143.199 13.0775 142.09 12.3125 140.634 12.3125C139.025 12.3125 137.959 13.0775 137.264 14.2359H137.198V12.6404H133.807V23.8312Z" fill="white"></path><path fill-rule="evenodd" clip-rule="evenodd" d="M22.8794 10.5168C21.4071 9.52785 19.6762 9 17.9055 9V0C21.4468 0 24.9087 1.05568 27.8532 3.03355C30.7978 5.01141 33.0927 7.82263 34.448 11.1117C35.8032 14.4007 36.1578 18.02 35.4669 21.5116C34.776 25.0033 33.0707 28.2106 30.5665 30.7279C28.0625 33.2453 24.872 34.9596 21.3987 35.6541C17.9254 36.3487 14.3251 35.9922 11.0533 34.6298C7.78154 33.2674 4.98509 30.9604 3.01762 28.0003C1.05014 25.0402 0 21.56 0 18H8.95274C8.95274 19.78 9.47782 21.5201 10.4615 23.0001C11.4453 24.4802 12.8435 25.6337 14.4794 26.3149C16.1153 26.9961 17.9154 27.1743 19.6521 26.827C21.3887 26.4798 22.9839 25.6226 24.2361 24.364C25.4881 23.1053 26.3408 21.5016 26.6862 19.7558C27.0316 18.01 26.8544 16.2004 26.1767 14.5559C25.4991 12.9113 24.3516 11.5057 22.8794 10.5168Z" fill="#E6A493"></path><path fill-rule="evenodd" clip-rule="evenodd" d="M8.95274 4.75644e-06C8.95274 1.1819 8.72117 2.35223 8.27125 3.44416C7.82133 4.53609 7.16188 5.52824 6.33054 6.36397C5.49921 7.1997 4.51227 7.86263 3.42607 8.31493C2.33987 8.76721 1.17569 9.00001 3.91333e-07 9.00001L0 18C2.35138 18 4.67974 17.5344 6.85214 16.6298C9.02454 15.7253 10.9984 14.3994 12.6611 12.7279C14.3238 11.0565 15.6427 9.07219 16.5425 6.88831C17.4424 4.70444 17.9055 2.36379 17.9055 0L8.95274 4.75644e-06Z" fill="#E6A493"></path></svg>