<svg xmlns="http://www.w3.org/2000/svg" width="96" height="96" viewBox="0 0 96 96" fill="none"><circle cx="47.9999" cy="48.0026" r="47.9167" fill="#4D3E3A"></circle><path d="M53.0438 35.2828C51.7534 33.9929 49.9706 33.194 48.0008 33.194C47.0323 33.194 46.112 33.3874 45.2734 33.733C44.401 34.0941 43.6147 34.6241 42.9586 35.2828C42.3006 35.9384 41.7718 36.7245 41.4098 37.5974C41.063 38.436 40.8713 39.3568 40.8713 40.3251C40.8713 40.8151 40.9182 41.2875 41.008 41.736C41.1031 42.2045 41.2447 42.6549 41.4245 43.0864C41.6121 43.5314 41.8383 43.9494 42.0985 44.3339C42.365 44.7245 42.6716 45.0904 43.0092 45.4215C43.342 45.7465 43.7033 46.0401 44.0866 46.2937C44.4027 46.5018 44.7352 46.6843 45.0803 46.8414L45.303 46.9309C45.7194 47.1022 46.1604 47.2322 46.6211 47.3235C47.0631 47.4084 47.5251 47.4534 48.0008 47.4534C48.4808 47.4534 48.943 47.4082 49.3876 47.3235C49.7617 47.2513 50.1245 47.1492 50.4756 47.0192L50.6992 46.928C51.1334 46.7528 51.5419 46.5362 51.9197 46.2862C52.3042 46.0362 52.6634 45.7439 52.993 45.4215C53.3318 45.0904 53.6375 44.7245 53.9025 44.3339C54.1638 43.9494 54.3916 43.5314 54.5791 43.0864C54.7587 42.6549 54.8981 42.2043 54.9934 41.736C55.0842 41.2873 55.1311 40.8151 55.1311 40.3251C55.1311 39.3537 54.9397 38.4333 54.5927 37.5964C54.2335 36.7274 53.7011 35.942 53.0438 35.2828ZM38.8774 55.6476C39.5461 54.9804 40.3178 54.4758 41.1431 54.1365C42.0002 53.7827 42.9129 53.605 43.8209 53.605C44.6261 53.605 45.4339 53.7437 46.2071 54.023C46.8392 54.2502 47.4445 54.5709 48.0021 54.9869C48.5567 54.5706 49.1625 54.2502 49.7961 54.023C50.5676 53.7439 51.3766 53.605 52.1808 53.605C53.0905 53.605 54.0051 53.7827 54.8628 54.1365C55.6907 54.4775 56.4622 54.9833 57.1279 55.6476L57.4588 55.9787L57.4469 55.9934C57.9568 56.5764 58.3564 57.2284 58.6419 57.9169C58.9958 58.7762 59.1724 59.6879 59.1724 60.5978C59.1724 61.5059 58.9958 62.4194 58.6419 63.2788C58.2988 64.1048 57.7952 64.8782 57.1294 65.5455L50.2914 72.3815C49.6177 73.0802 48.9396 73.7951 48.2523 74.4746C47.3936 75.2527 46.0353 76.2069 44.248 76.5861C42.4632 76.9627 40.2624 76.7613 37.7341 75.2277C37.6911 75.205 37.6448 75.1733 37.6042 75.1455C36.8397 74.5758 36.1291 73.9528 35.4798 73.2805C34.8755 72.6578 34.322 71.996 33.8237 71.2983H21.22V38.473L48.0004 19.25L74.78 38.473V71.2983H64.0956L64.5378 70.5872C64.7653 70.2196 64.9797 69.846 65.1779 69.467C65.3766 69.0904 65.5612 68.7032 65.7355 68.3051L65.8574 68.0244H71.5069V40.1394L48.0004 23.2671L24.4953 40.1394V68.0244H31.9804C31.5639 67.0558 31.2352 66.0474 30.9995 65.0147C30.713 63.7556 30.5627 62.4599 30.5627 61.1521C30.5627 59.4052 30.8212 57.7165 31.2996 56.1233C31.7967 54.4758 32.5309 52.9276 33.4634 51.525C34.2577 50.3253 35.1993 49.2305 36.2591 48.2661C37.1889 47.4195 38.2099 46.6703 39.307 46.0394C39.1799 45.846 39.0594 45.6485 38.9442 45.4445C38.7419 45.0868 38.5608 44.7224 38.4055 44.3497C38.1446 43.7294 37.9396 43.0697 37.8029 42.3807C37.6676 41.7093 37.5969 41.0206 37.5969 40.3253C37.5969 38.9197 37.8767 37.5749 38.3859 36.3481C38.9134 35.071 39.6867 33.9242 40.6443 32.9692C41.6024 32.0097 42.7481 31.2379 44.023 30.7088C45.2516 30.2006 46.5943 29.9199 48.0006 29.9199C49.4062 29.9199 50.751 30.2006 51.9785 30.7088C53.2541 31.2379 54.401 32.0097 55.3586 32.9692C57.2407 34.8513 58.4053 37.4529 58.4053 40.3253C58.4053 41.0206 58.3339 41.7093 58.2003 42.3807C58.0609 43.0697 57.8571 43.7294 57.5962 44.3497C57.4409 44.7224 57.261 45.0871 57.0575 45.4445C56.9421 45.6485 56.8216 45.846 56.6943 46.0394C57.7915 46.6703 58.8138 47.4195 59.7424 48.2661C60.8021 49.2302 61.744 50.3253 62.5383 51.525C63.471 52.9276 64.2047 54.4758 64.7009 56.1233C65.1815 57.7165 65.4402 59.4055 65.4402 61.1521C65.4402 62.5153 65.2783 63.8657 64.9673 65.1691C64.6541 66.4888 64.1851 67.7678 63.5753 68.9803C62.9662 70.1925 62.2196 71.3321 61.3476 72.3689C60.4851 73.3943 59.4972 74.327 58.3973 75.1474C58.3571 75.1733 58.3118 75.205 58.2702 75.2304C56.4752 76.3163 54.8405 76.7316 53.4056 76.7495C51.9565 76.764 50.7157 76.3729 49.7099 75.8487L49.1509 75.5571L51.5516 73.0983L51.8292 73.1939C52.4199 73.3943 53.1067 73.5017 53.8841 73.419C54.665 73.3376 55.5387 73.0569 56.4992 72.4882C57.3808 71.829 58.1724 71.0773 58.8639 70.2503C59.5713 69.4065 60.1741 68.4902 60.6603 67.5215C61.1508 66.5421 61.5301 65.5068 61.7835 64.4301C62.0352 63.3701 62.1651 62.2696 62.1651 61.1523C62.1651 59.7259 61.9562 58.354 61.5676 57.0614C61.1654 55.7219 60.5695 54.4661 59.8152 53.3277C59.1105 52.2662 58.2664 51.3033 57.3128 50.4708C56.4348 49.7063 55.4624 49.0454 54.4133 48.5129C54.0745 48.7791 53.7198 49.0255 53.35 49.2464C52.894 49.5201 52.4187 49.7593 51.9282 49.9606L51.5034 50.1349L51.4981 50.1204C51.0134 50.2946 50.5124 50.4345 49.9979 50.5337C49.3479 50.6627 48.6809 50.7305 48.0016 50.7305C47.3208 50.7305 46.65 50.6627 45.9992 50.5354C45.333 50.4054 44.6902 50.2113 44.0764 49.9604L43.7843 49.8394V49.8304C43.3904 49.6535 43.0128 49.4575 42.651 49.2419C42.2839 49.0216 41.9291 48.7757 41.5898 48.5124C40.541 49.0449 39.5683 49.7058 38.6908 50.4703C37.7368 51.3025 36.8924 52.2657 36.1879 53.3272C35.4324 54.4656 34.8375 55.7214 34.436 57.0609C34.0474 58.3537 33.8383 59.7257 33.8383 61.1518C33.8383 62.2665 33.9682 63.3652 34.2187 64.425C34.4733 65.5007 34.8508 66.5379 35.3426 67.513C35.8312 68.4871 36.4346 69.406 37.1417 70.2501C37.8331 71.0771 38.6235 71.8287 39.5037 72.4879C41.129 73.4485 42.509 73.5785 43.6089 73.349C44.6311 73.1361 45.4227 72.6133 45.9496 72.1612L46.6369 71.4543L46.7303 71.3396L47.0147 71.0543L47.0224 71.0596C49.595 68.4237 52.2128 65.834 54.8158 63.229C55.1706 62.8742 55.4385 62.4635 55.6195 62.0284C55.8056 61.5753 55.8993 61.0877 55.8993 60.5976C55.8993 60.1049 55.8066 59.6182 55.6222 59.1669C55.4462 58.7375 55.1851 58.3339 54.8422 57.9834L54.8155 57.9626C54.4588 57.6071 54.0491 57.3397 53.6137 57.1601C53.1609 56.9735 52.6719 56.8784 52.1818 56.8784C51.6915 56.8784 51.2019 56.9735 50.7493 57.1601C50.3137 57.3397 49.904 57.6074 49.5492 57.9626L48.004 59.5045L46.5986 58.0986H46.5923L46.4554 57.9624C46.0989 57.6069 45.6892 57.3395 45.2533 57.1599C44.8008 56.9733 44.3119 56.8782 43.8214 56.8782C43.3313 56.8782 42.8405 56.9733 42.388 57.1599C41.9487 57.3375 41.5397 57.6071 41.1849 57.9578C40.8352 58.3109 40.5656 58.7206 40.3836 59.1622C40.2 59.61 40.1034 60.0964 40.1034 60.5976C40.1034 61.0877 40.1975 61.5743 40.3851 62.0274C40.5642 62.4635 40.8311 62.8742 41.1876 63.229L41.1922 63.2396L41.2433 63.2921L41.2447 63.2875L47.018 69.0604L44.7325 71.4038L38.872 65.5455C38.2077 64.8782 37.7027 64.1048 37.361 63.2788C37.0076 62.4194 36.8295 61.5059 36.8295 60.5978C36.8295 59.6879 37.0076 58.7762 37.361 57.9169C37.7015 57.0938 38.2065 56.3218 38.872 55.6556L38.8774 55.6476Z" fill="white"></path></svg>