<svg xmlns="http://www.w3.org/2000/svg" width="152" height="36" viewBox="0 0 152 36" fill="none"><path d="M44.4548 23.8778H55.2825V20.5992H48.3032V8.25H44.4548V23.8778Z" fill="white"></path><path d="M61.6971 21.6939C60.1534 21.6939 59.3489 20.3388 59.3489 18.3061C59.3489 16.2734 60.1534 14.8964 61.6971 14.8964C63.2408 14.8964 64.067 16.2734 64.067 18.3061C64.067 20.3388 63.2408 21.6939 61.6971 21.6939ZM61.7189 24.2293C65.3063 24.2293 67.6545 21.6721 67.6545 18.3061C67.6545 14.9401 65.3063 12.3828 61.7189 12.3828C58.1531 12.3828 55.7615 14.9401 55.7615 18.3061C55.7615 21.6721 58.1531 24.2293 61.7189 24.2293Z" fill="white"></path><path d="M73.8649 27.7467C75.5173 27.7467 76.9741 27.3752 77.9525 26.5009C78.8439 25.6922 79.4309 24.4682 79.4309 22.7852V12.6872H76.0391V13.8894H75.9957C75.3434 12.9495 74.3433 12.3594 72.8648 12.3594C70.1035 12.3594 68.1902 14.6762 68.1902 17.9548C68.1902 21.3863 70.5166 23.266 73.017 23.266C74.365 23.266 75.2129 22.7196 75.8652 21.9765H75.9522V23.0912C75.9522 24.4463 75.3217 25.2332 73.8214 25.2332C72.6474 25.2332 72.0603 24.7305 71.8646 24.1403H68.4294C68.7772 26.479 70.7993 27.7467 73.8649 27.7467ZM73.8432 20.6213C72.5169 20.6213 71.6472 19.5285 71.6472 17.8455C71.6472 16.1406 72.5169 15.0478 73.8432 15.0478C75.3217 15.0478 76.1044 16.3155 76.1044 17.8236C76.1044 19.3973 75.3869 20.6213 73.8432 20.6213Z" fill="white"></path><path d="M86.4041 21.6939C84.8604 21.6939 84.056 20.3388 84.056 18.3061C84.056 16.2734 84.8604 14.8964 86.4041 14.8964C87.9478 14.8964 88.7741 16.2734 88.7741 18.3061C88.7741 20.3388 87.9478 21.6939 86.4041 21.6939ZM86.4259 24.2293C90.0134 24.2293 92.3611 21.6721 92.3611 18.3061C92.3611 14.9401 90.0134 12.3828 86.4259 12.3828C82.8602 12.3828 80.4685 14.9401 80.4685 18.3061C80.4685 21.6721 82.8602 24.2293 86.4259 24.2293Z" fill="white"></path><path d="M93.3971 23.8778H96.9411V12.687H93.3971V23.8778ZM93.3971 11.1351H96.9411V8.25H93.3971V11.1351Z" fill="white"></path><path d="M98.4783 27.5719H102.022V22.7196H102.066C102.761 23.6595 103.783 24.2278 105.218 24.2278C108.132 24.2278 110.067 21.9109 110.067 18.2826C110.067 14.9166 108.262 12.3594 105.305 12.3594C103.783 12.3594 102.696 13.0369 101.935 14.0424H101.87V12.6872H98.4783V27.5719ZM104.305 21.4738C102.783 21.4738 101.914 20.2279 101.914 18.4138C101.914 16.5996 102.696 15.2226 104.24 15.2226C105.762 15.2226 106.479 16.4904 106.479 18.4138C106.479 20.3153 105.653 21.4738 104.305 21.4738Z" fill="white"></path><path d="M115.836 24.2278C118.75 24.2278 120.902 22.96 120.902 20.5121C120.902 17.6488 118.598 17.1461 116.641 16.8182C115.228 16.5559 113.967 16.4466 113.967 15.6598C113.967 14.9604 114.641 14.6325 115.51 14.6325C116.489 14.6325 117.163 14.9385 117.293 15.9439H120.555C120.381 13.7364 118.685 12.3594 115.532 12.3594C112.901 12.3594 110.727 13.5834 110.727 15.9439C110.727 18.5668 112.793 19.0913 114.728 19.4192C116.206 19.6815 117.554 19.7908 117.554 20.7962C117.554 21.5175 116.88 21.9109 115.815 21.9109C114.641 21.9109 113.901 21.3645 113.771 20.2498H110.423C110.531 22.7196 112.575 24.2278 115.836 24.2278Z" fill="white"></path><path d="M125.717 24.2062C127.261 24.2062 128.239 23.5942 129.044 22.5013H129.109V23.8783H132.501V12.6875H128.957V18.9386C128.957 20.2719 128.217 21.1899 127 21.1899C125.869 21.1899 125.326 20.5123 125.326 19.2883V12.6875H121.803V20.0315C121.803 22.5232 123.151 24.2062 125.717 24.2062Z" fill="white"></path><path d="M134.043 23.878H137.587V17.6051C137.587 16.2718 138.239 15.3319 139.348 15.3319C140.413 15.3319 140.913 16.0314 140.913 17.2335V23.878H144.457V17.6051C144.457 16.2718 145.088 15.3319 146.218 15.3319C147.284 15.3319 147.784 16.0314 147.784 17.2335V23.878H151.328V16.5996C151.328 14.0861 150.067 12.3594 147.545 12.3594C146.11 12.3594 144.914 12.9714 144.044 14.3265H144.001C143.435 13.1244 142.327 12.3594 140.87 12.3594C139.261 12.3594 138.195 13.1244 137.5 14.2828H137.435V12.6872H134.043V23.878Z" fill="white"></path><path fill-rule="evenodd" clip-rule="evenodd" d="M17.9055 36C27.7944 36 35.811 27.9411 35.811 18C35.811 8.05888 27.7944 0 17.9055 0C8.01655 0 0 8.05888 0 18C0 27.9411 8.01655 36 17.9055 36ZM23.4914 8.38516C23.7633 7.41425 22.826 6.84012 21.9701 7.45317L10.0209 16.0106C9.0926 16.6755 9.23862 18 10.2403 18H13.3868V17.9755H19.5192L14.5224 19.7479L12.3196 27.6149C12.0477 28.5858 12.9849 29.1599 13.841 28.5468L25.7901 19.9894C26.7184 19.3246 26.5723 18 25.5708 18H20.7991L23.4914 8.38516Z" fill="#E6A493"></path></svg>