<svg xmlns="http://www.w3.org/2000/svg" width="150" height="36" viewBox="0 0 150 36" fill="none"><path d="M43.832 23.8109H54.5321V20.5709H47.6351V8.36719H43.832V23.8109Z" fill="white"></path><path d="M60.8716 21.6506C59.3461 21.6506 58.5511 20.3115 58.5511 18.3027C58.5511 16.2939 59.3461 14.9332 60.8716 14.9332C62.3971 14.9332 63.2136 16.2939 63.2136 18.3027C63.2136 20.3115 62.3971 21.6506 60.8716 21.6506ZM60.8931 24.1562C64.4383 24.1562 66.7588 21.629 66.7588 18.3027C66.7588 14.9764 64.4383 12.4492 60.8931 12.4492C57.3693 12.4492 55.0059 14.9764 55.0059 18.3027C55.0059 21.629 57.3693 24.1562 60.8931 24.1562Z" fill="white"></path><path d="M72.896 27.6358C74.5289 27.6358 75.9685 27.2686 76.9354 26.4046C77.8163 25.6054 78.3964 24.3959 78.3964 22.7327V12.7537H75.0446V13.9417H75.0016C74.357 13.0129 73.3687 12.4297 71.9076 12.4297C69.1789 12.4297 67.2881 14.7192 67.2881 17.9592C67.2881 21.3503 69.5871 23.2079 72.058 23.2079C73.3902 23.2079 74.2281 22.6679 74.8727 21.9335H74.9586V23.0351C74.9586 24.3743 74.3355 25.1518 72.853 25.1518C71.6927 25.1518 71.1126 24.655 70.9192 24.0719H67.5244C67.8682 26.383 69.8664 27.6358 72.896 27.6358ZM72.8745 20.5943C71.5638 20.5943 70.7044 19.5143 70.7044 17.8512C70.7044 16.1664 71.5638 15.0864 72.8745 15.0864C74.3355 15.0864 75.109 16.3392 75.109 17.8296C75.109 19.3847 74.4 20.5943 72.8745 20.5943Z" fill="white"></path><path d="M85.2876 21.6506C83.7621 21.6506 82.9671 20.3115 82.9671 18.3027C82.9671 16.2939 83.7621 14.9332 85.2876 14.9332C86.8131 14.9332 87.6296 16.2939 87.6296 18.3027C87.6296 20.3115 86.8131 21.6506 85.2876 21.6506ZM85.3091 24.1562C88.8543 24.1562 91.1743 21.629 91.1743 18.3027C91.1743 14.9764 88.8543 12.4492 85.3091 12.4492C81.7853 12.4492 79.4219 14.9764 79.4219 18.3027C79.4219 21.629 81.7853 24.1562 85.3091 24.1562Z" fill="white"></path><path d="M92.1973 23.8109H95.6995V12.7519H92.1973V23.8109ZM92.1973 11.2183H95.6995V8.36719H92.1973V11.2183Z" fill="white"></path><path d="M97.2197 27.463H100.722V22.6679H100.765C101.452 23.5967 102.462 24.1583 103.88 24.1583C106.76 24.1583 108.672 21.8687 108.672 18.2832C108.672 14.9568 106.888 12.4297 103.966 12.4297C102.462 12.4297 101.388 13.0993 100.636 14.0929H100.572V12.7537H97.2197V27.463ZM102.978 21.4367C101.474 21.4367 100.615 20.2055 100.615 18.4128C100.615 16.62 101.388 15.2592 102.914 15.2592C104.418 15.2592 105.127 16.512 105.127 18.4128C105.127 20.2919 104.31 21.4367 102.978 21.4367Z" fill="white"></path><path d="M114.373 24.1583C117.253 24.1583 119.38 22.9055 119.38 20.4863C119.38 17.6568 117.102 17.16 115.168 16.836C113.772 16.5768 112.526 16.4688 112.526 15.6912C112.526 15 113.192 14.676 114.051 14.676C115.018 14.676 115.684 14.9784 115.813 15.972H119.036C118.864 13.7905 117.188 12.4297 114.073 12.4297C111.473 12.4297 109.324 13.6393 109.324 15.972C109.324 18.564 111.365 19.0824 113.278 19.4064C114.739 19.6655 116.071 19.7735 116.071 20.7671C116.071 21.4799 115.405 21.8687 114.352 21.8687C113.192 21.8687 112.461 21.3287 112.332 20.2271H109.023C109.131 22.6679 111.151 24.1583 114.373 24.1583Z" fill="white"></path><path d="M124.137 24.133C125.663 24.133 126.629 23.5282 127.424 22.4482H127.489V23.809H130.841V12.75H127.338V18.9275C127.338 20.2451 126.608 21.1522 125.405 21.1522C124.287 21.1522 123.75 20.4826 123.75 19.2731V12.75H120.27V20.0075C120.27 22.4698 121.602 24.133 124.137 24.133Z" fill="white"></path><path d="M132.364 23.8127H135.867V17.6136C135.867 16.296 136.511 15.3672 137.607 15.3672C138.66 15.3672 139.154 16.0584 139.154 17.2464V23.8127H142.656V17.6136C142.656 16.296 143.279 15.3672 144.397 15.3672C145.449 15.3672 145.944 16.0584 145.944 17.2464V23.8127H149.446V16.62C149.446 14.1361 148.2 12.4297 145.707 12.4297C144.289 12.4297 143.107 13.0345 142.248 14.3736H142.205C141.646 13.1857 140.55 12.4297 139.111 12.4297C137.521 12.4297 136.468 13.1857 135.781 14.3305H135.716V12.7537H132.364V23.8127Z" fill="white"></path><path d="M22.4642 0.948454L18.9432 0L15.976 11.1324L13.2971 1.08199L9.77595 2.03045L12.6703 12.8892L5.46113 5.64197L2.88352 8.23319L10.7911 16.1826L0.943472 13.5299L0 17.0696L10.7597 19.9679C10.6366 19.4337 10.5714 18.8772 10.5714 18.3053C10.5714 14.2576 13.8355 10.9762 17.862 10.9762C21.8885 10.9762 25.1526 14.2576 25.1526 18.3053C25.1526 18.8735 25.0882 19.4266 24.9666 19.9576L34.7452 22.5916L35.6886 19.052L24.8861 16.1421L34.7344 13.4894L33.7908 9.94973L22.9888 12.8594L30.1979 5.61222L27.6203 3.021L19.8224 10.8601L22.4642 0.948454Z" fill="#E6A493"></path><path d="M24.9573 20C24.6554 21.283 24.018 22.4356 23.1436 23.3591L30.2277 30.4807L32.8053 27.8895L24.9573 20Z" fill="#E6A493"></path><path d="M23.0722 23.4375C22.1872 24.3462 21.0687 25.0243 19.8145 25.3738L22.3923 35.045L25.9133 34.0965L23.0722 23.4375Z" fill="#E6A493"></path><path d="M19.683 25.4083C19.1011 25.5587 18.4912 25.6386 17.8626 25.6386C17.1892 25.6386 16.5371 25.5468 15.918 25.375L13.3379 35.055L16.8589 36.0034L19.683 25.4083Z" fill="#E6A493"></path><path d="M15.7925 25.3399C14.5574 24.9731 13.4588 24.2863 12.5918 23.375L5.49023 30.5141L8.06785 33.1053L15.7925 25.3399Z" fill="#E6A493"></path><path d="M12.5338 23.3097C11.6817 22.3926 11.0611 21.2554 10.7656 19.9922L0.955078 22.6348L1.89854 26.1744L12.5338 23.3097Z" fill="#E6A493"></path></svg>