<svg xmlns="http://www.w3.org/2000/svg" width="151" height="36" viewBox="0 0 151 36" fill="none"><path d="M44.0537 23.8309H54.8814V20.5524H47.9021V8.20312H44.0537V23.8309Z" fill="white"></path><path d="M61.297 21.647C59.7533 21.647 58.9488 20.2919 58.9488 18.2592C58.9488 16.2265 59.7533 14.8495 61.297 14.8495C62.8407 14.8495 63.6669 16.2265 63.6669 18.2592C63.6669 20.2919 62.8407 21.647 61.297 21.647ZM61.3187 24.1825C64.9062 24.1825 67.2544 21.6252 67.2544 18.2592C67.2544 14.8932 64.9062 12.3359 61.3187 12.3359C57.753 12.3359 55.3613 14.8932 55.3613 18.2592C55.3613 21.6252 57.753 24.1825 61.3187 24.1825Z" fill="white"></path><path d="M73.4638 27.6999C75.1162 27.6999 76.5729 27.3283 77.5513 26.454C78.4428 25.6453 79.0298 24.4213 79.0298 22.7383V12.6404H75.638V13.8425H75.5945C74.9423 12.9026 73.9421 12.3125 72.4637 12.3125C69.7024 12.3125 67.7891 14.6293 67.7891 17.9079C67.7891 21.3395 70.1155 23.2192 72.6159 23.2192C73.9639 23.2192 74.8118 22.6727 75.4641 21.9296H75.5511V23.0443C75.5511 24.3994 74.9205 25.1863 73.4203 25.1863C72.2462 25.1863 71.6592 24.6836 71.4635 24.0934H68.0282C68.3761 26.4322 70.3981 27.6999 73.4638 27.6999ZM73.4421 20.5745C72.1158 20.5745 71.2461 19.4816 71.2461 17.7986C71.2461 16.0938 72.1158 15.0009 73.4421 15.0009C74.9205 15.0009 75.7033 16.2686 75.7033 17.7768C75.7033 19.3505 74.9858 20.5745 73.4421 20.5745Z" fill="white"></path><path d="M86.004 21.647C84.4603 21.647 83.6558 20.2919 83.6558 18.2592C83.6558 16.2265 84.4603 14.8495 86.004 14.8495C87.5477 14.8495 88.3739 16.2265 88.3739 18.2592C88.3739 20.2919 87.5477 21.647 86.004 21.647ZM86.0257 24.1825C89.6132 24.1825 91.9609 21.6252 91.9609 18.2592C91.9609 14.8932 89.6132 12.3359 86.0257 12.3359C82.46 12.3359 80.0684 14.8932 80.0684 18.2592C80.0684 21.6252 82.46 24.1825 86.0257 24.1825Z" fill="white"></path><path d="M92.9961 23.8309H96.5401V12.6401H92.9961V23.8309ZM92.9961 11.0883H96.5401V8.20312H92.9961V11.0883Z" fill="white"></path><path d="M98.0781 27.525H101.622V22.6727H101.666C102.361 23.6126 103.383 24.1809 104.818 24.1809C107.732 24.1809 109.667 21.864 109.667 18.2358C109.667 14.8698 107.862 12.3125 104.905 12.3125C103.383 12.3125 102.296 12.9901 101.535 13.9955H101.47V12.6404H98.0781V27.525ZM103.905 21.4269C102.383 21.4269 101.513 20.181 101.513 18.3669C101.513 16.5528 102.296 15.1758 103.84 15.1758C105.362 15.1758 106.079 16.4435 106.079 18.3669C106.079 20.2685 105.253 21.4269 103.905 21.4269Z" fill="white"></path><path d="M115.435 24.1809C118.349 24.1809 120.501 22.9132 120.501 20.4652C120.501 17.6019 118.197 17.0992 116.24 16.7713C114.827 16.5091 113.565 16.3998 113.565 15.6129C113.565 14.9135 114.239 14.5856 115.109 14.5856C116.088 14.5856 116.762 14.8916 116.892 15.8971H120.153C119.979 13.6895 118.284 12.3125 115.131 12.3125C112.5 12.3125 110.326 13.5365 110.326 15.8971C110.326 18.5199 112.391 19.0445 114.326 19.3723C115.805 19.6346 117.153 19.7439 117.153 20.7493C117.153 21.4706 116.479 21.864 115.414 21.864C114.239 21.864 113.5 21.3176 113.37 20.2029H110.021C110.13 22.6727 112.174 24.1809 115.435 24.1809Z" fill="white"></path><path d="M125.316 24.1593C126.86 24.1593 127.838 23.5473 128.643 22.4544H128.708V23.8314H132.1V12.6406H128.556V18.8917C128.556 20.225 127.816 21.143 126.599 21.143C125.468 21.143 124.925 20.4654 124.925 19.2415V12.6406H121.402V19.9846C121.402 22.4763 122.75 24.1593 125.316 24.1593Z" fill="white"></path><path d="M133.641 23.8312H137.185V17.5582C137.185 16.2249 137.837 15.2851 138.946 15.2851C140.011 15.2851 140.511 15.9845 140.511 17.1866V23.8312H144.055V17.5582C144.055 16.2249 144.686 15.2851 145.816 15.2851C146.882 15.2851 147.382 15.9845 147.382 17.1866V23.8312H150.926V16.5528C150.926 14.0392 149.665 12.3125 147.143 12.3125C145.708 12.3125 144.512 12.9245 143.642 14.2796H143.599C143.033 13.0775 141.924 12.3125 140.468 12.3125C138.859 12.3125 137.793 13.0775 137.098 14.2359H137.032V12.6404H133.641V23.8312Z" fill="white"></path><path fill-rule="evenodd" clip-rule="evenodd" d="M7.65704 3.23808C6.37621 4.13841 5.21799 5.20288 4.21255 6.40116C8.32124 6.0177 13.5412 6.64384 19.6015 9.69001C26.073 12.9428 31.2843 13.0528 34.911 12.3495C34.5819 11.3479 34.1676 10.3853 33.6769 9.47014C29.5252 9.91033 24.2028 9.32767 18 6.20998C14.0611 4.23016 10.5891 3.41461 7.65704 3.23808ZM31.2517 5.99998C27.9731 2.3175 23.2085 0 17.9055 0C16.3481 0 14.8371 0.199896 13.3966 0.575532C15.3476 1.11068 17.4201 1.89359 19.6015 2.99004C24.1428 5.27268 28.0636 6.00764 31.2517 5.99998ZM35.6864 15.8653C31.3049 16.735 25.2546 16.5564 18 12.9099C11.2178 9.50092 5.81967 9.54385 2.17901 10.3572C1.99109 10.3991 1.8076 10.4432 1.62853 10.4891C1.15188 11.5312 0.771399 12.6271 0.498401 13.765C0.789978 13.6867 1.09128 13.6123 1.40214 13.5428C5.8189 12.5562 12.0594 12.599 19.6015 16.39C26.3838 19.799 31.7819 19.7561 35.4226 18.9427C35.5473 18.9149 35.6702 18.8861 35.7911 18.8564C35.8043 18.5727 35.8109 18.2871 35.8109 18C35.8109 17.2777 35.7687 16.5654 35.6864 15.8653ZM35.2065 22.6551C30.8675 23.4176 24.9933 23.125 18 19.6099C11.2178 16.2009 5.81967 16.2438 2.17901 17.0571C1.37089 17.2376 0.643916 17.4575 0.00262315 17.6896C0.000874684 17.7928 0 17.8963 0 18C0 27.9411 8.01655 36 17.9055 36C26.1931 36 33.1657 30.3398 35.2065 22.6551Z" fill="#E6A493"></path></svg>